HIERARCHY
ROOT hip
{
	OFFSET 0.000000 0.000000 0.000000 
	CHANNELS 6 Xposition Yposition Zposition Zrotation Xrotation Yrotation
	JOINT abdomen
	{
		OFFSET 0.000000 3.402643 0.000000 
		CHANNELS 3 Zrotation Xrotation Yrotation
		JOINT chest
		{
			OFFSET 0.000000 8.438565 -0.680529 
			CHANNELS 3 Zrotation Xrotation Yrotation
			JOINT neck
			{
				OFFSET 0.000000 10.207942 -0.272212 
				CHANNELS 3 Zrotation Xrotation Yrotation
				JOINT head
				{
					OFFSET 0.000000 3.130431 0.000000 
					CHANNELS 3 Zrotation Xrotation Yrotation
					End Site
					{
						OFFSET 0.000000 3.130435 0.000000 
					}
				}
			}
			JOINT lCollar
			{
				OFFSET 3.470700 6.669187 -0.816635 
				CHANNELS 3 Zrotation Xrotation Yrotation
				JOINT lShldr
				{
					OFFSET 3.198488 0.000000 0.000000 
					CHANNELS 3 Zrotation Xrotation Yrotation
					JOINT lForeArm
					{
						OFFSET 10.139888 0.000000 0.000000 
						CHANNELS 3 Zrotation Xrotation Yrotation
						JOINT lHand
						{
							OFFSET 8.370511 0.000000 0.000000 
							CHANNELS 3 Zrotation Xrotation Yrotation
							End Site
							{
								OFFSET 4.083176 0.000000 0.000000 
							}
						}
					}
				}
			}
			JOINT rCollar
			{
				OFFSET -3.470700 6.669187 -0.816635 
				CHANNELS 3 Zrotation Xrotation Yrotation
				JOINT rShldr
				{
					OFFSET -3.198488 0.000000 0.000000 
					CHANNELS 3 Zrotation Xrotation Yrotation
					JOINT rForeArm
					{
						OFFSET -10.139888 0.000000 0.000000 
						CHANNELS 3 Zrotation Xrotation Yrotation
						JOINT rHand
						{
							OFFSET -8.370511 0.000000 0.000000 
							CHANNELS 3 Zrotation Xrotation Yrotation
							End Site
							{
								OFFSET -4.083176 0.000000 0.000000 
							}
						}
					}
				}
			}
		}
	}
	JOINT lThigh
	{
		OFFSET 5.308129 -1.633274 1.361059 
		CHANNELS 3 Zrotation Xrotation Yrotation
		JOINT lShin
		{
			OFFSET -2.041588 -20.007561 0.000000 
			CHANNELS 3 Zrotation Xrotation Yrotation
			JOINT lFoot
			{
				OFFSET 0.000000 -19.190928 -1.224953 
				CHANNELS 3 Zrotation Xrotation Yrotation
				End Site
				{
					OFFSET 0.000000 -2.449906 4.627600 
				}
			}
		}
	}
	JOINT rThigh
	{
		OFFSET -5.308129 -1.633274 1.361059 
		CHANNELS 3 Zrotation Xrotation Yrotation
		JOINT rShin
		{
			OFFSET 2.041588 -20.007561 0.000000 
			CHANNELS 3 Zrotation Xrotation Yrotation
			JOINT rFoot
			{
				OFFSET 0.000000 -19.190928 -1.224953 
				CHANNELS 3 Zrotation Xrotation Yrotation
				End Site
				{
					OFFSET 0.000000 -2.449906 4.627600 
				}
			}
		}
	}
}
MOTION
Frames: 13
Frame Time: 0.033333
-4.020123 48.535450 0.842471 4.284094 -3.213681 39.460091 -0.000000 -0.000002 -0.000000 -1.189597 6.629441 6.826607 11.464996 11.040664 -51.021206 -0.954937 -15.993991 -0.145955 -2.000757 -0.069240 1.990978 -64.711830 26.459139 -24.048193 5.738113 3.240174 -107.295242 2.114160 46.606117 -2.800880 1.990970 -0.069577 -2.000746 60.999046 -49.634163 15.382559 -13.855808 -4.411093 109.070526 5.428983 34.623104 7.007376 11.640090 -7.533998 -10.680416 -8.265808 41.475616 3.660005 -5.842582 -18.642324 28.630268 -22.218031 -18.877226 -17.392076 21.816036 47.632347 -7.677908 -3.910819 -14.388466 -14.893003 
-3.658957 48.976334 3.498346 2.411873 -5.093180 18.261116 -0.000000 -0.000002 -0.000000 -1.044999 7.869800 26.734894 6.687453 11.068647 -45.762173 -0.954937 -15.993991 -0.145955 -2.000757 -0.069240 1.990978 -60.055176 27.241411 -17.922941 5.895228 5.621138 -84.770546 1.715506 43.959038 -2.835931 1.990970 -0.069577 -2.000746 59.163799 -51.411182 22.597696 -14.300041 -2.758102 102.555573 8.091219 36.816029 6.653568 8.890663 -4.273540 -4.105719 -8.421829 41.771400 3.781004 0.034837 -20.847063 37.168922 -15.280565 -20.351797 -5.635906 24.944515 50.916946 -10.110440 -6.166024 -12.727330 -13.996074 
-2.770733 48.916321 5.608124 -0.000000 -5.957042 -3.173828 -0.000000 -0.000002 -0.000000 -1.424448 9.167133 46.457458 3.839513 10.153415 -46.986435 -0.954937 -15.993991 -0.145955 -2.000757 -0.069240 1.990978 -52.586590 25.697092 -14.541326 5.068224 7.993508 -60.866142 0.724629 40.025360 -2.780568 1.990970 -0.069577 -2.000746 47.008553 -52.395191 26.072277 -14.607449 -0.104122 92.374664 8.968191 33.160999 4.504276 8.606635 -8.815705 5.979122 -9.626920 44.604542 4.726187 4.824145 -22.126684 36.395569 -15.269538 -13.289496 -4.600235 21.657873 47.378822 -7.540316 -9.508556 -11.416834 -8.404373 
-1.052815 48.217182 7.576447 -2.247710 -5.767081 -20.958778 -0.000000 -0.000002 -0.000000 -2.101593 9.895817 62.177383 0.643968 9.696665 -44.727592 -0.954937 -15.993991 -0.145955 -2.000757 -0.069240 1.990978 -45.654755 22.111898 -13.108295 3.629745 9.607357 -40.301064 -0.363345 35.463573 -2.889981 1.990970 -0.069577 -2.000746 32.185848 -51.564537 27.193125 -14.325324 3.272054 79.442802 10.578568 25.580549 2.706930 15.355279 -16.426271 16.845451 -11.067236 48.297276 5.802365 2.714745 -19.728054 26.516949 -20.748674 -7.439571 -5.603582 17.019829 41.475315 -4.203410 -7.722196 -8.505697 -3.907115 
0.433857 47.566353 9.659838 -3.833477 -5.086334 -31.298044 -0.000000 -0.000002 -0.000000 -2.596243 9.765549 69.991432 -1.562123 8.981089 -41.142799 -0.954937 -15.993991 -0.145955 -2.000757 -0.069240 1.990978 -41.056240 18.195154 -11.819581 2.524066 10.284300 -27.987387 -1.116295 30.922461 -3.392831 1.990970 -0.069577 -2.000746 25.949909 -49.249760 31.103786 -13.255411 6.563593 66.223648 15.263133 20.994635 -0.679881 27.682825 -21.377172 29.346174 -10.402561 47.585430 5.179637 -4.543118 -4.679718 8.094104 -24.297285 -0.943898 -5.499121 9.021372 28.814816 0.362966 -0.119002 1.168342 -4.931618 
0.641684 47.606449 11.932834 -4.555875 -4.624093 -30.046562 -0.000000 -0.000002 -0.000000 -2.665663 8.448008 64.961754 -0.246048 7.138604 -41.483089 -0.954937 -15.993991 -0.145955 -2.000757 -0.069240 1.990978 -39.900166 16.042442 -9.158366 2.667684 10.217017 -29.481630 -1.289572 26.691057 -4.362056 1.990970 -0.069577 -2.000746 34.579765 -48.612892 36.934212 -11.794923 9.042672 55.056000 18.848461 21.102837 -4.847258 28.446892 -20.150761 31.219137 -11.176994 49.381935 5.764755 -2.762217 -9.376732 4.582914 -26.399567 -0.770395 -5.083684 9.187094 30.150383 0.335310 11.512102 10.281245 -5.654060 
0.058307 47.987411 14.331144 -4.437053 -4.420376 -15.001617 -0.000000 -0.000002 -0.000000 -3.365501 5.566617 42.074295 6.106780 4.942638 -44.756645 -0.954937 -15.993991 -0.145955 -2.000757 -0.069240 1.990978 -43.445843 14.558635 -4.348877 4.267724 9.040567 -48.404636 -1.345620 21.351154 -5.915090 1.990970 -0.069577 -2.000746 60.443840 -46.864033 38.673008 -9.746035 11.313365 43.142075 16.795914 21.418383 -4.322439 26.616388 -22.972977 30.339542 -11.215824 49.025040 5.835198 0.794712 -8.052986 -1.530339 -49.747215 -20.007397 -1.989094 57.149578 68.765038 -38.081223 16.441000 15.943295 -16.402529 
-0.882458 48.526436 16.795395 -3.740204 -4.131853 8.967773 -0.000000 -0.000002 -0.000000 -5.719176 2.681919 9.056592 13.473141 7.058210 -39.020245 -0.954937 -15.993991 -0.145955 -2.000757 -0.069240 1.990978 -49.784073 10.731114 -0.844855 5.748352 6.422771 -77.102478 -1.506802 15.420736 -7.731100 1.990970 -0.069577 -2.000746 74.838036 -40.310947 18.083225 -7.369786 13.041702 31.637438 13.553287 21.877514 -3.451960 16.506460 -26.642107 18.710974 -9.779688 44.381145 4.895876 2.949750 -11.360025 10.274523 -73.450844 -34.749741 -10.905214 145.664063 59.987507 -120.404289 4.148541 20.104103 -22.544199 
-1.873544 49.154484 19.277285 -2.935141 -3.491527 36.217571 -0.000000 -0.000002 -0.000000 -8.957880 1.427696 -24.825325 20.269909 13.712283 -28.137949 -0.954937 -15.993991 -0.145955 -2.000757 -0.069240 1.990978 -54.779327 4.236214 -1.664705 5.748611 3.291218 -106.889954 -1.800889 9.787309 -9.484991 1.990970 -0.069577 -2.000746 67.229591 -29.825212 -15.991883 -5.432693 13.988504 23.175947 10.043642 22.343660 -2.502438 5.708376 -27.155542 4.466223 -8.186831 38.880821 3.872333 2.719919 -13.097939 22.811953 -90.028923 -39.061527 -19.242468 104.590988 72.474129 -82.654449 -8.989001 22.167505 -17.100302 
-2.607876 49.779236 21.728954 -2.531974 -2.634144 61.114025 -0.000000 -0.000002 -0.000000 -11.380430 1.407333 -50.197208 24.338293 22.139030 -21.750017 -0.954937 -15.993991 -0.145955 -2.000757 -0.069240 1.990978 -56.175682 -1.557047 -5.158159 4.700003 1.150746 -129.364227 -2.144159 5.361288 -10.888031 1.990970 -0.069577 -2.000746 53.959743 -15.952033 -36.125675 -4.789437 14.227241 20.448225 7.223089 22.656902 -1.714337 1.240991 -25.228811 -1.278587 -7.089584 34.739082 3.138309 1.176059 -13.358051 14.945444 -100.417183 -44.724781 -24.931549 25.141758 65.375832 -10.796535 -10.493009 8.105876 -10.408568 
-1.657202 50.167698 24.363955 -2.746416 -2.331331 74.409668 -0.000000 -0.000002 -0.000000 -12.179152 0.868673 -59.170052 21.826670 27.382784 -14.109234 -0.954937 -15.993991 -0.145955 -2.000757 -0.069240 1.990978 -55.615108 -3.693087 -8.279029 4.139434 0.523009 -137.375916 -2.419329 2.752382 -11.683575 1.990970 -0.069577 -2.000746 48.446705 -8.596197 -38.040958 -6.133388 13.679419 26.176205 5.855191 22.807030 -1.324224 1.654045 -22.972013 -0.841130 -6.939305 34.077271 3.082938 -0.901484 -15.506000 4.908258 -78.712662 -47.830574 -11.969935 -44.869488 54.002602 28.961300 6.364397 -10.713860 -5.776831 
-0.252771 49.800308 24.649181 -1.758725 -1.844844 64.855164 -0.000000 -0.000002 -0.000000 -11.701328 -1.080588 -56.173019 17.526125 28.854017 -8.235442 -0.954937 -15.993991 -0.145955 -2.000757 -0.069240 1.990978 -54.969051 -3.582472 -11.986660 4.332190 0.712103 -134.774902 -2.665444 0.906822 -12.189049 1.990970 -0.069577 -2.000746 47.959133 -6.143451 -29.512257 -9.339067 11.662465 41.029446 5.382759 22.847166 -1.186868 1.477996 -20.384520 0.450149 -7.298736 35.681095 3.242625 -0.164474 -19.525209 11.850967 -86.414116 -34.130699 -19.455212 36.573441 65.705063 -19.445341 -14.646832 1.372178 -13.751009 
-0.155438 49.169670 23.780474 0.302793 -1.132815 49.244270 -0.000000 -0.000002 -0.000000 -9.970698 -3.568464 -46.007782 13.335383 28.286884 -5.295952 -0.954937 -15.993991 -0.145955 -2.000757 -0.069240 1.990978 -54.763409 -2.389616 -16.352509 4.896129 1.437751 -126.118698 -2.838454 -0.162125 -12.431679 1.990970 -0.069577 -2.000746 49.196156 -6.086261 -15.401443 -12.660683 7.736058 61.133041 5.592556 22.826958 -1.250238 -0.764352 -19.031742 -0.778857 -7.465703 36.252640 3.363853 1.676679 -19.501947 21.974003 -59.671494 -22.777380 -10.897487 70.954147 71.294991 -50.928570 -12.699272 -8.214366 -20.331947 
